<?xml version="1.0" encoding="utf-8" ?><svg xmlns="http://www.w3.org/2000/svg" xmlns:xlink="http://www.w3.org/1999/xlink" width="160" height="120" viewBox="0 0 160 120"><path fill="#3130DD" transform="scale(0.078125 0.0585938)" d="M959.886 876.889C947.473 929.962 942.64 983.863 940.857 1038.33C940.24 1057.2 932.934 1150.49 942.6 1160.33C946.802 1157.51 952.74 1135.79 954.676 1130.09C960.97 1111.95 967.129 1093.78 973.154 1075.55C981.238 1051.26 991.101 1026.46 997.648 1001.92C1005.04 973.364 1010.93 944.373 1017.39 915.608C1019.33 906.965 1021.37 881.188 1026 875.805L1027.67 876.141C1029.98 878.733 1034.34 887.823 1036.1 891.442C1056.09 932.64 1078.55 971.076 1102.37 1010.18C1113.89 994.376 1175.75 881.082 1184.6 878.036C1188.99 882.577 1204.34 986.635 1209.13 1003.48C1218.77 1037.38 1225.27 1074.28 1238.45 1108.87C1242.21 1120.63 1252.1 1149.02 1258.32 1158.8L1262.83 1169.72C1231.09 1171.16 1198.41 1169.54 1166.58 1169.89C1160.28 1169.96 1153.21 1169.92 1146.98 1169.44C1177.69 1126.31 1195.96 1075.58 1199.8 1022.78C1159.04 1065.58 1120.9 1121.47 1093.89 1174.11C1068.78 1115.34 1048.08 1072.38 1007.83 1023.14C1008.39 1069.78 1017.57 1133.6 1052.46 1167.2C1053.46 1168.16 1054.48 1169.1 1055.53 1170.02L942.352 1169.97C928.108 1169.96 899.514 1170.8 886.355 1169.68C894.658 1157.36 897.299 1153.02 902.35 1139.18C894.737 1148.15 890.035 1153.54 881.072 1161.16C871.949 1167.3 862.108 1171.95 851.279 1173.65C799.055 1181.87 769.835 1147.21 762.312 1098.6C753.896 1044.22 767.772 963.743 833.023 953.415C862.376 948.77 890.424 964.212 913.173 981.046C904.624 944.692 880.165 907.952 861.803 876.182C893.75 876.702 928.134 877.727 959.886 876.889ZM794.879 1060.77C811.684 1090.57 833.852 1100.87 867.751 1096.27C891.917 1092.43 905.435 1081.08 917.675 1060.46C897.577 1032.78 881.211 1022.32 846.577 1024.3C822.664 1028.99 805.975 1038.01 794.879 1060.77Z"/><path fill="#3130DD" transform="scale(0.078125 0.0585938)" d="M375.115 966.964C401.769 947.24 458.434 940.32 489.348 952.234C557.847 978.633 523.122 1075.01 528.899 1129.75C530.232 1142.37 532.698 1149.93 537.918 1161.11C557.427 1151.47 568.676 1137.34 575.1 1116.68C591.302 1064.57 589.876 1010.84 566.421 961.849C592.232 962.145 617.768 962.798 643.629 962.851C638.04 972.938 633.585 981.305 628.648 991.743C626.193 997.141 623.873 1002.6 621.691 1008.12C618.607 1012.44 615.056 1022.64 612.466 1027.98C610.216 1032.04 609.048 1034.89 607.289 1039.2C603.858 1046.28 601.866 1054.35 600.279 1062.03C602.57 1057.13 607.946 1046.35 609.23 1041.7C611.045 1038 612.7 1034.55 614.348 1030.77C617.444 1023.01 623.098 1016.99 625.878 1009.92C628.06 1006.23 631.316 1001.71 633.779 998.069C650.984 976.111 671.294 957.061 700.012 953.295C729.425 949.439 752.066 968.992 754.235 998.15C755.888 1020.38 747.221 1040.88 740.66 1061.62C736.823 1074.09 733.305 1086.66 730.11 1099.32C724.567 1121.89 722.337 1145.89 722.274 1169.14L633.986 1168.29C650.89 1156.14 667.069 1141.07 682.509 1126.86C696.228 1114.23 716.931 1094.58 721.309 1075.84C725.712 1055.33 704.285 1043.39 687.037 1042.16C665.783 1040.65 646.009 1046.81 630.104 1060.9C596.333 1090.82 576.379 1123.26 588.825 1168.68L521.188 1169.36C514.243 1169.4 494.732 1169.87 489.055 1168.62C488.284 1167.32 488.153 1167.41 487.82 1166C490.178 1160.01 492.141 1153.36 494.575 1147.09C497.657 1142.56 503.121 1122.16 501.377 1117.41C498.162 1121.66 492.713 1140.12 492.319 1145.42C487.759 1156.92 477.312 1163.9 466.763 1169.42C449.382 1175.19 430.74 1176.04 412.907 1171.86C355.025 1158.37 348.119 1068.54 407.049 1050.59C443.125 1039.59 470.518 1043.32 506.083 1052.25C485.277 1011.27 440.665 1008.14 403.458 1030.32C397.088 1034.12 391.749 1040.4 386.709 1045.83C385.32 1024.24 378.776 989.253 375.115 966.964ZM467.262 1097.5C478.418 1093.2 504.55 1075.6 503.865 1062.49C497.743 1051.35 447.852 1051.23 435.586 1052.34C424.854 1054.17 412.526 1056.32 405.823 1066.24C403.157 1070.12 402.22 1074.94 403.237 1079.53C409.024 1106.38 445.158 1104.06 465.35 1098.07L467.262 1097.5Z"/><path fill="#3130DD" transform="scale(0.078125 0.0585938)" d="M164.984 873.126L232.656 873.166C250.403 873.207 267.665 872.442 285.46 875.489C327.364 882.662 352.607 919.975 344.814 961.619C340.427 985.059 324.78 999.493 305.565 1012.26C344.369 1039.14 366.694 1076.23 347.7 1123.09C322.491 1175.13 283.415 1170.24 233.273 1170.14L164.736 1170.03C163.977 1146.65 164.991 1117.43 165.122 1093.74L165.385 965.147C165.511 946.232 165.41 927.316 165.081 908.403C164.929 899.531 164 881.371 164.984 873.126ZM264.649 1088.41C291.471 1087.77 315.26 1083.14 331.556 1059.75C314.5 1027.79 283.32 1025.41 250.666 1025.48C239.395 1025.77 193.287 1026.75 184.989 1029.3C183.465 1031.69 183.659 1032.64 184.451 1035.49C195.797 1076.3 225.443 1087.37 264.649 1088.41ZM236.842 1013.82C257.432 1010.84 285.161 1007.79 299.001 989.822C307.25 979.113 303.727 966.169 291.922 959.91C278.809 952.957 265.218 951.458 250.601 952.391C213.804 959.072 190.381 975.896 183.267 1014.41C203.894 1016.14 216.263 1015.59 236.842 1013.82Z"/><path fill="#3130DD" transform="scale(0.078125 0.0585938)" d="M1258.9 966.609C1278.97 957.94 1296.99 949.801 1318.88 946.639C1354.93 941.429 1394.35 951.302 1409.57 987.748C1412.45 994.774 1414.36 1002.16 1415.26 1009.7C1419.89 1045.9 1412.04 1088.07 1413.89 1124.47C1414.35 1133.48 1415.46 1141.93 1418.4 1150.53C1420.29 1156.03 1425.1 1161.93 1425.43 1167.09C1421.32 1173.53 1379.35 1170.07 1370.76 1169.04C1368.13 1168.72 1371.97 1161.78 1372.45 1160.83C1374.87 1155.87 1378.01 1146.12 1379.52 1140.67C1377.75 1141.67 1368.41 1156.36 1363.2 1161.79C1347.59 1175.66 1321.01 1176.35 1301.56 1172.98C1286.46 1170.37 1276.64 1164.53 1265.25 1154.68C1253.47 1139.93 1251.22 1132.25 1248.23 1113.97C1249.68 1055.31 1293.23 1041.46 1344.5 1043.78C1360.21 1044.49 1372.18 1047.3 1387.06 1052.12C1381.32 1038.24 1374.91 1027.05 1359.84 1022.03C1325.57 1010.59 1295.38 1019.89 1271.4 1044.87C1268.08 1019.64 1261.44 990.325 1258.9 966.609ZM1351.73 1097.6C1363.22 1093.13 1387.16 1076.45 1386.75 1062.95C1380.82 1052.57 1332 1051.83 1320.05 1052.41C1309.26 1054.21 1298.59 1055.76 1291.57 1065.08C1282.92 1076.58 1291.58 1091.06 1302.33 1097.17C1315.84 1104.85 1332.62 1103.19 1346.87 1099.07C1348.49 1098.6 1350.11 1098.11 1351.73 1097.6Z"/><path fill="#3130DD" transform="scale(0.078125 0.0585938)" d="M1630.86 949.329C1636.79 948.488 1642.8 948.385 1648.75 949.023C1706.47 954.704 1719.4 1011.44 1714.33 1060.23C1701.78 1061.71 1683.73 1061.27 1671.02 1061.52C1641.43 1062.1 1610.64 1060.77 1581.16 1062C1599.43 1107.42 1654.25 1110.47 1693.04 1090.4C1699.8 1086.9 1707.96 1080.05 1714.33 1075.44C1714.88 1080.75 1714.75 1087.32 1714.8 1092.76C1715.58 1110.94 1716.14 1128.38 1715.17 1146.57C1702.06 1159.44 1679.22 1171.19 1661.07 1173.61C1604.1 1181.17 1560.97 1141.53 1553.15 1086.38C1544.94 1028.49 1564.65 959.01 1630.86 949.329ZM1580.73 1052.08L1643.25 1051.7C1650.92 1051.72 1686.66 1053.21 1691.08 1050.33C1691.44 1045.08 1687.39 1038.41 1683.98 1034.63C1671.31 1020.59 1651.94 1016.2 1633.78 1017.42C1607.72 1018.88 1589.52 1025.28 1580.73 1052.08Z"/><path fill="#3130DD" transform="scale(0.078125 0.0585938)" d="M1798.52 948.519C1835.26 946.326 1849.37 950.919 1880.8 967.973C1874.91 995.039 1868.63 1021.36 1864.39 1048.8C1845.27 1030.5 1826.17 1018.25 1799.21 1019.02C1744.04 1020.59 1733.4 1054.4 1798.73 1051.56C1835.56 1050.66 1882.13 1058.12 1883.17 1104.88C1884.29 1155.64 1838.09 1172.14 1796.03 1173.75C1793.99 1173.78 1791.95 1173.74 1789.91 1173.62C1762.24 1172.16 1737.53 1163.91 1718.7 1142.89C1726.19 1118.32 1733.6 1089.24 1741.4 1066.24C1762.8 1090.04 1787.37 1108.01 1821.04 1105.41C1831.73 1104.58 1858.2 1095.11 1853.61 1082.89C1839.4 1045.01 1775.09 1072.17 1746.98 1051.1C1739.77 1046.31 1733.39 1037.94 1732.61 1028.7C1728.28 977.217 1753.21 955.612 1798.52 948.519Z"/><path fill="#3130DD" transform="scale(0.078125 0.0585938)" d="M1489.24 889.798C1492.79 890.243 1494.01 890.053 1496.66 892.452C1500.58 900.334 1495.87 940.567 1494.89 952.015L1544.05 951.505L1542.02 1022.04C1518.73 1022.19 1495.22 1020.66 1471.93 1021.5C1454.99 1022.11 1453.02 1047.81 1454.89 1060.27C1460.66 1098.57 1515.3 1086.78 1541.4 1083.16C1541.77 1101.9 1541.24 1122.01 1541.08 1140.85L1541.08 1177.52C1514.98 1176.09 1491.94 1171.99 1471.22 1154.75C1431.7 1121.87 1448.68 1064.62 1442.92 1020.24C1440.24 999.585 1433.88 984.854 1423.63 967.148C1448.9 957.391 1474.2 951.431 1483.15 921.847C1486.16 911.905 1486.1 901.34 1488.7 891.735L1489.24 889.798Z"/><path fill="#F7F7F5" fill-opacity="0.050980393" transform="scale(0.078125 0.0585938)" d="M1238.45 1108.87C1240.27 1111.72 1240.81 1113.02 1243.59 1115.02C1245.59 1113.11 1244.91 1113.96 1245.95 1111.2L1248.23 1113.97C1251.22 1132.25 1253.47 1139.93 1265.25 1154.68C1261.34 1155.77 1260.22 1155.07 1258.32 1158.8C1252.1 1149.02 1242.21 1120.63 1238.45 1108.87Z"/><path fill="#F7F7F5" fill-opacity="0.027450981" transform="scale(0.078125 0.0585938)" d="M492.319 1145.42C494.24 1146.55 493.559 1145.9 494.575 1147.09C492.141 1153.36 490.178 1160.01 487.82 1166C480.878 1166.58 487.382 1167.25 481.53 1167.79C475.074 1168.38 473.544 1169.86 466.763 1169.42C477.312 1163.9 487.759 1156.92 492.319 1145.42Z"/><path fill="#F7F7F5" fill-opacity="0.043137256" transform="scale(0.078125 0.0585938)" d="M881.072 1161.16C890.035 1153.54 894.737 1148.15 902.35 1139.18C897.299 1153.02 894.658 1157.36 886.355 1169.68C886.35 1167.03 886.847 1164.91 887.315 1162.33L886.212 1161.06L881.072 1161.16Z"/><path fill="#5352DF" fill-opacity="0.8392157" transform="scale(0.078125 0.0585938)" d="M492.319 1145.42C492.713 1140.12 498.162 1121.66 501.377 1117.41C503.121 1122.16 497.657 1142.56 494.575 1147.09C493.559 1145.9 494.24 1146.55 492.319 1145.42Z"/><path fill="#E2E2FA" fill-opacity="0.074509807" transform="scale(0.078125 0.0585938)" d="M621.691 1008.12C623.873 1002.6 626.193 997.141 628.648 991.743L629.619 995.849L633.779 998.069C631.316 1001.71 628.06 1006.23 625.878 1009.92L623.842 1010.27L621.691 1008.12Z"/><path fill="#F7F7F5" fill-opacity="0.10588235" transform="scale(0.078125 0.0585938)" d="M1363.2 1161.79C1368.41 1156.36 1377.75 1141.67 1379.52 1140.67C1378.01 1146.12 1374.87 1155.87 1372.45 1160.83C1369.09 1160.29 1366.56 1161.11 1363.2 1161.79Z"/><path fill="#CECEF7" fill-opacity="0.47843137" transform="scale(0.078125 0.0585938)" d="M621.691 1008.12L623.842 1010.27L625.878 1009.92C623.098 1016.99 617.444 1023.01 614.348 1030.77L612.466 1027.98C615.056 1022.64 618.607 1012.44 621.691 1008.12Z"/><path fill="#5352DF" fill-opacity="0.83137256" transform="scale(0.078125 0.0585938)" d="M607.289 1039.2L609.23 1041.7C607.946 1046.35 602.57 1057.13 600.279 1062.03C601.866 1054.35 603.858 1046.28 607.289 1039.2Z"/><path fill="#7272E9" fill-opacity="0.71764708" transform="scale(0.078125 0.0585938)" d="M607.289 1039.2C609.048 1034.89 610.216 1032.04 612.466 1027.98L614.348 1030.77C612.7 1034.55 611.045 1038 609.23 1041.7L607.289 1039.2Z"/></svg>